<?xml version="1.0" encoding="utf-8" standalone="no"?>
<!DOCTYPE svg PUBLIC "-//W3C//DTD SVG 1.1//EN"
  "http://www.w3.org/Graphics/SVG/1.1/DTD/svg11.dtd">
<svg xmlns:xlink="http://www.w3.org/1999/xlink" width="720pt" height="432pt" viewBox="0 0 720 432" xmlns="http://www.w3.org/2000/svg" version="1.1">
 <metadata>
  <rdf:RDF xmlns:dc="http://purl.org/dc/elements/1.1/" xmlns:cc="http://creativecommons.org/ns#" xmlns:rdf="http://www.w3.org/1999/02/22-rdf-syntax-ns#">
   <cc:Work>
    <dc:type rdf:resource="http://purl.org/dc/dcmitype/StillImage"/>
    <dc:date>2026-07-20T16:47:41.002988</dc:date>
    <dc:format>image/svg+xml</dc:format>
    <dc:creator>
     <cc:Agent>
      <dc:title>Matplotlib v3.11.0, https://matplotlib.org/</dc:title>
     </cc:Agent>
    </dc:creator>
   </cc:Work>
  </rdf:RDF>
 </metadata>
 <defs>
  <style type="text/css">*{stroke-linejoin: round; stroke-linecap: butt}</style>
 </defs>
 <g id="figure_1">
  <g id="patch_1">
   <path d="M 0 432 
L 720 432 
L 720 0 
L 0 0 
z
" style="fill: #ffffff"/>
  </g>
  <g id="axes_1">
   <g id="patch_2">
    <path d="M 90 384.48 
L 648 384.48 
L 648 51.84 
L 90 51.84 
z
" style="fill: #ffffff"/>
   </g>
   <g id="matplotlib.axis_1">
    <g id="xtick_1">
     <g id="line2d_1">
      <path d="M 90 384.48 
L 90 51.84 
" clip-path="url(#pd88de61695)" style="fill: none; stroke-dasharray: 2.96,1.28; stroke-dashoffset: 0; stroke: #b0b0b0; stroke-opacity: 0.7; stroke-width: 0.8"/>
     </g>
     <g id="line2d_2">
      <defs>
       <path id="m281902b8c4" d="M 0 0 
L 0 3.5 
" style="stroke: #000000; stroke-width: 0.8"/>
      </defs>
      <g>
       <use xlink:href="#m281902b8c4" x="90" y="384.48" style="stroke: #000000; stroke-width: 0.8"/>
      </g>
     </g>
     <g id="text_1">
      <!-- 0 -->
      <g transform="translate(86.81875 399.077656) scale(0.1 -0.1)">
       <defs>
        <path id="DejaVuSans-13" d="M 2034 4250 
Q 1547 4250 1301 3770 
Q 1056 3291 1056 2328 
Q 1056 1369 1301 889 
Q 1547 409 2034 409 
Q 2525 409 2770 889 
Q 3016 1369 3016 2328 
Q 3016 3291 2770 3770 
Q 2525 4250 2034 4250 
z
M 2034 4750 
Q 2819 4750 3233 4129 
Q 3647 3509 3647 2328 
Q 3647 1150 3233 529 
Q 2819 -91 2034 -91 
Q 1250 -91 836 529 
Q 422 1150 422 2328 
Q 422 3509 836 4129 
Q 1250 4750 2034 4750 
z
" transform="scale(0.015625)"/>
       </defs>
       <use xlink:href="#DejaVuSans-13"/>
      </g>
     </g>
    </g>
    <g id="xtick_2">
     <g id="line2d_3">
      <path d="M 201.6 384.48 
L 201.6 51.84 
" clip-path="url(#pd88de61695)" style="fill: none; stroke-dasharray: 2.96,1.28; stroke-dashoffset: 0; stroke: #b0b0b0; stroke-opacity: 0.7; stroke-width: 0.8"/>
     </g>
     <g id="line2d_4">
      <g>
       <use xlink:href="#m281902b8c4" x="201.6" y="384.48" style="stroke: #000000; stroke-width: 0.8"/>
      </g>
     </g>
     <g id="text_2">
      <!-- 20 -->
      <g transform="translate(195.2375 399.077656) scale(0.1 -0.1)">
       <defs>
        <path id="DejaVuSans-15" d="M 1228 531 
L 3431 531 
L 3431 0 
L 469 0 
L 469 531 
Q 828 903 1448 1529 
Q 2069 2156 2228 2338 
Q 2531 2678 2651 2914 
Q 2772 3150 2772 3378 
Q 2772 3750 2511 3984 
Q 2250 4219 1831 4219 
Q 1534 4219 1204 4116 
Q 875 4013 500 3803 
L 500 4441 
Q 881 4594 1212 4672 
Q 1544 4750 1819 4750 
Q 2544 4750 2975 4387 
Q 3406 4025 3406 3419 
Q 3406 3131 3298 2873 
Q 3191 2616 2906 2266 
Q 2828 2175 2409 1742 
Q 1991 1309 1228 531 
z
" transform="scale(0.015625)"/>
       </defs>
       <use xlink:href="#DejaVuSans-15"/>
       <use xlink:href="#DejaVuSans-13" transform="translate(63.625 0)"/>
      </g>
     </g>
    </g>
    <g id="xtick_3">
     <g id="line2d_5">
      <path d="M 313.2 384.48 
L 313.2 51.84 
" clip-path="url(#pd88de61695)" style="fill: none; stroke-dasharray: 2.96,1.28; stroke-dashoffset: 0; stroke: #b0b0b0; stroke-opacity: 0.7; stroke-width: 0.8"/>
     </g>
     <g id="line2d_6">
      <g>
       <use xlink:href="#m281902b8c4" x="313.2" y="384.48" style="stroke: #000000; stroke-width: 0.8"/>
      </g>
     </g>
     <g id="text_3">
      <!-- 40 -->
      <g transform="translate(306.8375 399.077656) scale(0.1 -0.1)">
       <defs>
        <path id="DejaVuSans-17" d="M 2419 4116 
L 825 1625 
L 2419 1625 
L 2419 4116 
z
M 2253 4666 
L 3047 4666 
L 3047 1625 
L 3713 1625 
L 3713 1100 
L 3047 1100 
L 3047 0 
L 2419 0 
L 2419 1100 
L 313 1100 
L 313 1709 
L 2253 4666 
z
" transform="scale(0.015625)"/>
       </defs>
       <use xlink:href="#DejaVuSans-17"/>
       <use xlink:href="#DejaVuSans-13" transform="translate(63.625 0)"/>
      </g>
     </g>
    </g>
    <g id="xtick_4">
     <g id="line2d_7">
      <path d="M 424.8 384.48 
L 424.8 51.84 
" clip-path="url(#pd88de61695)" style="fill: none; stroke-dasharray: 2.96,1.28; stroke-dashoffset: 0; stroke: #b0b0b0; stroke-opacity: 0.7; stroke-width: 0.8"/>
     </g>
     <g id="line2d_8">
      <g>
       <use xlink:href="#m281902b8c4" x="424.8" y="384.48" style="stroke: #000000; stroke-width: 0.8"/>
      </g>
     </g>
     <g id="text_4">
      <!-- 60 -->
      <g transform="translate(418.4375 399.077656) scale(0.1 -0.1)">
       <defs>
        <path id="DejaVuSans-19" d="M 2113 2584 
Q 1688 2584 1439 2293 
Q 1191 2003 1191 1497 
Q 1191 994 1439 701 
Q 1688 409 2113 409 
Q 2538 409 2786 701 
Q 3034 994 3034 1497 
Q 3034 2003 2786 2293 
Q 2538 2584 2113 2584 
z
M 3366 4563 
L 3366 3988 
Q 3128 4100 2886 4159 
Q 2644 4219 2406 4219 
Q 1781 4219 1451 3797 
Q 1122 3375 1075 2522 
Q 1259 2794 1537 2939 
Q 1816 3084 2150 3084 
Q 2853 3084 3261 2657 
Q 3669 2231 3669 1497 
Q 3669 778 3244 343 
Q 2819 -91 2113 -91 
Q 1303 -91 875 529 
Q 447 1150 447 2328 
Q 447 3434 972 4092 
Q 1497 4750 2381 4750 
Q 2619 4750 2861 4703 
Q 3103 4656 3366 4563 
z
" transform="scale(0.015625)"/>
       </defs>
       <use xlink:href="#DejaVuSans-19"/>
       <use xlink:href="#DejaVuSans-13" transform="translate(63.625 0)"/>
      </g>
     </g>
    </g>
    <g id="xtick_5">
     <g id="line2d_9">
      <path d="M 536.4 384.48 
L 536.4 51.84 
" clip-path="url(#pd88de61695)" style="fill: none; stroke-dasharray: 2.96,1.28; stroke-dashoffset: 0; stroke: #b0b0b0; stroke-opacity: 0.7; stroke-width: 0.8"/>
     </g>
     <g id="line2d_10">
      <g>
       <use xlink:href="#m281902b8c4" x="536.4" y="384.48" style="stroke: #000000; stroke-width: 0.8"/>
      </g>
     </g>
     <g id="text_5">
      <!-- 80 -->
      <g transform="translate(530.0375 399.077656) scale(0.1 -0.1)">
       <defs>
        <path id="DejaVuSans-1b" d="M 2034 2216 
Q 1584 2216 1326 1975 
Q 1069 1734 1069 1313 
Q 1069 891 1326 650 
Q 1584 409 2034 409 
Q 2484 409 2743 651 
Q 3003 894 3003 1313 
Q 3003 1734 2745 1975 
Q 2488 2216 2034 2216 
z
M 1403 2484 
Q 997 2584 770 2862 
Q 544 3141 544 3541 
Q 544 4100 942 4425 
Q 1341 4750 2034 4750 
Q 2731 4750 3128 4425 
Q 3525 4100 3525 3541 
Q 3525 3141 3298 2862 
Q 3072 2584 2669 2484 
Q 3125 2378 3379 2068 
Q 3634 1759 3634 1313 
Q 3634 634 3220 271 
Q 2806 -91 2034 -91 
Q 1263 -91 848 271 
Q 434 634 434 1313 
Q 434 1759 690 2068 
Q 947 2378 1403 2484 
z
M 1172 3481 
Q 1172 3119 1398 2916 
Q 1625 2713 2034 2713 
Q 2441 2713 2670 2916 
Q 2900 3119 2900 3481 
Q 2900 3844 2670 4047 
Q 2441 4250 2034 4250 
Q 1625 4250 1398 4047 
Q 1172 3844 1172 3481 
z
" transform="scale(0.015625)"/>
       </defs>
       <use xlink:href="#DejaVuSans-1b"/>
       <use xlink:href="#DejaVuSans-13" transform="translate(63.625 0)"/>
      </g>
     </g>
    </g>
    <g id="xtick_6">
     <g id="line2d_11">
      <path d="M 648 384.48 
L 648 51.84 
" clip-path="url(#pd88de61695)" style="fill: none; stroke-dasharray: 2.96,1.28; stroke-dashoffset: 0; stroke: #b0b0b0; stroke-opacity: 0.7; stroke-width: 0.8"/>
     </g>
     <g id="line2d_12">
      <g>
       <use xlink:href="#m281902b8c4" x="648" y="384.48" style="stroke: #000000; stroke-width: 0.8"/>
      </g>
     </g>
     <g id="text_6">
      <!-- 100 -->
      <g transform="translate(638.45625 399.077656) scale(0.1 -0.1)">
       <defs>
        <path id="DejaVuSans-14" d="M 794 531 
L 1825 531 
L 1825 4091 
L 703 3866 
L 703 4441 
L 1819 4666 
L 2450 4666 
L 2450 531 
L 3481 531 
L 3481 0 
L 794 0 
L 794 531 
z
" transform="scale(0.015625)"/>
       </defs>
       <use xlink:href="#DejaVuSans-14"/>
       <use xlink:href="#DejaVuSans-13" transform="translate(63.625 0)"/>
       <use xlink:href="#DejaVuSans-13" transform="translate(127.25 0)"/>
      </g>
     </g>
    </g>
    <g id="text_7">
     <!-- Latency ($\mu s$) -->
     <g transform="translate(337.95 413.08) scale(0.1 -0.1)">
      <defs>
       <path id="DejaVuSans-2f" d="M 628 4666 
L 1259 4666 
L 1259 531 
L 3531 531 
L 3531 0 
L 628 0 
L 628 4666 
z
" transform="scale(0.015625)"/>
       <path id="DejaVuSans-44" d="M 2194 1759 
Q 1497 1759 1228 1600 
Q 959 1441 959 1056 
Q 959 750 1161 570 
Q 1363 391 1709 391 
Q 2188 391 2477 730 
Q 2766 1069 2766 1631 
L 2766 1759 
L 2194 1759 
z
M 3341 1997 
L 3341 0 
L 2766 0 
L 2766 531 
Q 2569 213 2275 61 
Q 1981 -91 1556 -91 
Q 1019 -91 701 211 
Q 384 513 384 1019 
Q 384 1609 779 1909 
Q 1175 2209 1959 2209 
L 2766 2209 
L 2766 2266 
Q 2766 2663 2505 2880 
Q 2244 3097 1772 3097 
Q 1472 3097 1187 3025 
Q 903 2953 641 2809 
L 641 3341 
Q 956 3463 1253 3523 
Q 1550 3584 1831 3584 
Q 2591 3584 2966 3190 
Q 3341 2797 3341 1997 
z
" transform="scale(0.015625)"/>
       <path id="DejaVuSans-57" d="M 1172 4494 
L 1172 3500 
L 2356 3500 
L 2356 3053 
L 1172 3053 
L 1172 1153 
Q 1172 725 1289 603 
Q 1406 481 1766 481 
L 2356 481 
L 2356 0 
L 1766 0 
Q 1100 0 847 248 
Q 594 497 594 1153 
L 594 3053 
L 172 3053 
L 172 3500 
L 594 3500 
L 594 4494 
L 1172 4494 
z
" transform="scale(0.015625)"/>
       <path id="DejaVuSans-48" d="M 3597 1894 
L 3597 1613 
L 953 1613 
Q 991 1019 1311 708 
Q 1631 397 2203 397 
Q 2534 397 2845 478 
Q 3156 559 3463 722 
L 3463 178 
Q 3153 47 2828 -22 
Q 2503 -91 2169 -91 
Q 1331 -91 842 396 
Q 353 884 353 1716 
Q 353 2575 817 3079 
Q 1281 3584 2069 3584 
Q 2775 3584 3186 3129 
Q 3597 2675 3597 1894 
z
M 3022 2063 
Q 3016 2534 2758 2815 
Q 2500 3097 2075 3097 
Q 1594 3097 1305 2825 
Q 1016 2553 972 2059 
L 3022 2063 
z
" transform="scale(0.015625)"/>
       <path id="DejaVuSans-51" d="M 3513 2113 
L 3513 0 
L 2938 0 
L 2938 2094 
Q 2938 2591 2744 2837 
Q 2550 3084 2163 3084 
Q 1697 3084 1428 2787 
Q 1159 2491 1159 1978 
L 1159 0 
L 581 0 
L 581 3500 
L 1159 3500 
L 1159 2956 
Q 1366 3272 1645 3428 
Q 1925 3584 2291 3584 
Q 2894 3584 3203 3211 
Q 3513 2838 3513 2113 
z
" transform="scale(0.015625)"/>
       <path id="DejaVuSans-46" d="M 3122 3366 
L 3122 2828 
Q 2878 2963 2633 3030 
Q 2388 3097 2138 3097 
Q 1578 3097 1268 2742 
Q 959 2388 959 1747 
Q 959 1106 1268 751 
Q 1578 397 2138 397 
Q 2388 397 2633 464 
Q 2878 531 3122 666 
L 3122 134 
Q 2881 22 2623 -34 
Q 2366 -91 2075 -91 
Q 1284 -91 818 406 
Q 353 903 353 1747 
Q 353 2603 823 3093 
Q 1294 3584 2113 3584 
Q 2378 3584 2631 3529 
Q 2884 3475 3122 3366 
z
" transform="scale(0.015625)"/>
       <path id="DejaVuSans-5c" d="M 2059 -325 
Q 1816 -950 1584 -1140 
Q 1353 -1331 966 -1331 
L 506 -1331 
L 506 -850 
L 844 -850 
Q 1081 -850 1212 -737 
Q 1344 -625 1503 -206 
L 1606 56 
L 191 3500 
L 800 3500 
L 1894 763 
L 2988 3500 
L 3597 3500 
L 2059 -325 
z
" transform="scale(0.015625)"/>
       <path id="DejaVuSans-3" transform="scale(0.015625)"/>
       <path id="DejaVuSans-b" d="M 1984 4856 
Q 1566 4138 1362 3434 
Q 1159 2731 1159 2009 
Q 1159 1288 1364 580 
Q 1569 -128 1984 -844 
L 1484 -844 
Q 1016 -109 783 600 
Q 550 1309 550 2009 
Q 550 2706 781 3412 
Q 1013 4119 1484 4856 
L 1984 4856 
z
" transform="scale(0.015625)"/>
       <path id="DejaVuSans-Oblique-350" d="M -84 -1331 
L 856 3500 
L 1434 3500 
L 1009 1322 
Q 997 1256 987 1175 
Q 978 1094 978 1013 
Q 978 722 1161 565 
Q 1344 409 1684 409 
Q 2147 409 2431 671 
Q 2716 934 2816 1459 
L 3213 3500 
L 3788 3500 
L 3266 809 
Q 3253 750 3248 706 
Q 3244 663 3244 628 
Q 3244 531 3283 486 
Q 3322 441 3406 441 
Q 3438 441 3492 456 
Q 3547 472 3647 513 
L 3559 50 
Q 3422 -19 3297 -55 
Q 3172 -91 3053 -91 
Q 2847 -91 2730 40 
Q 2613 172 2613 403 
Q 2438 153 2195 31 
Q 1953 -91 1625 -91 
Q 1334 -91 1117 43 
Q 900 178 831 397 
L 494 -1331 
L -84 -1331 
z
" transform="scale(0.015625)"/>
       <path id="DejaVuSans-Oblique-56" d="M 3200 3397 
L 3091 2853 
Q 2863 2978 2609 3040 
Q 2356 3103 2088 3103 
Q 1634 3103 1373 2948 
Q 1113 2794 1113 2528 
Q 1113 2219 1719 2053 
Q 1766 2041 1788 2034 
L 1972 1978 
Q 2547 1819 2739 1644 
Q 2931 1469 2931 1166 
Q 2931 609 2489 259 
Q 2047 -91 1331 -91 
Q 1053 -91 747 -37 
Q 441 16 72 128 
L 184 722 
Q 500 559 806 475 
Q 1113 391 1394 391 
Q 1816 391 2080 572 
Q 2344 753 2344 1031 
Q 2344 1331 1650 1516 
L 1591 1531 
L 1394 1581 
Q 956 1697 753 1886 
Q 550 2075 550 2369 
Q 550 2928 970 3256 
Q 1391 3584 2113 3584 
Q 2397 3584 2667 3537 
Q 2938 3491 3200 3397 
z
" transform="scale(0.015625)"/>
       <path id="DejaVuSans-c" d="M 513 4856 
L 1013 4856 
Q 1481 4119 1714 3412 
Q 1947 2706 1947 2009 
Q 1947 1309 1714 600 
Q 1481 -109 1013 -844 
L 513 -844 
Q 928 -128 1133 580 
Q 1338 1288 1338 2009 
Q 1338 2731 1133 3434 
Q 928 4138 513 4856 
z
" transform="scale(0.015625)"/>
      </defs>
      <use xlink:href="#DejaVuSans-2f" transform="translate(0 0.125)"/>
      <use xlink:href="#DejaVuSans-44" transform="translate(55.712891 0.125)"/>
      <use xlink:href="#DejaVuSans-57" transform="translate(116.992188 0.125)"/>
      <use xlink:href="#DejaVuSans-48" transform="translate(156.201172 0.125)"/>
      <use xlink:href="#DejaVuSans-51" transform="translate(217.724609 0.125)"/>
      <use xlink:href="#DejaVuSans-46" transform="translate(281.103516 0.125)"/>
      <use xlink:href="#DejaVuSans-5c" transform="translate(336.083984 0.125)"/>
      <use xlink:href="#DejaVuSans-3" transform="translate(395.263672 0.125)"/>
      <use xlink:href="#DejaVuSans-b" transform="translate(427.050781 0.125)"/>
      <use xlink:href="#DejaVuSans-Oblique-350" transform="translate(466.064453 0.125)"/>
      <use xlink:href="#DejaVuSans-Oblique-56" transform="translate(529.6875 0.125)"/>
      <use xlink:href="#DejaVuSans-c" transform="translate(581.787109 0.125)"/>
     </g>
    </g>
   </g>
   <g id="matplotlib.axis_2">
    <g id="ytick_1">
     <g id="line2d_13">
      <path d="M 90 384.48 
L 648 384.48 
" clip-path="url(#pd88de61695)" style="fill: none; stroke-dasharray: 2.96,1.28; stroke-dashoffset: 0; stroke: #b0b0b0; stroke-opacity: 0.7; stroke-width: 0.8"/>
     </g>
     <g id="line2d_14">
      <defs>
       <path id="m8f4ed04e47" d="M 0 0 
L -3.5 0 
" style="stroke: #000000; stroke-width: 0.8"/>
      </defs>
      <g>
       <use xlink:href="#m8f4ed04e47" x="90" y="384.48" style="stroke: #000000; stroke-width: 0.8"/>
      </g>
     </g>
     <g id="text_8">
      <!-- 0.0 -->
      <g transform="translate(67.096875 388.278828) scale(0.1 -0.1)">
       <defs>
        <path id="DejaVuSans-11" d="M 684 794 
L 1344 794 
L 1344 0 
L 684 0 
L 684 794 
z
" transform="scale(0.015625)"/>
       </defs>
       <use xlink:href="#DejaVuSans-13"/>
       <use xlink:href="#DejaVuSans-11" transform="translate(63.625 0)"/>
       <use xlink:href="#DejaVuSans-13" transform="translate(95.40625 0)"/>
      </g>
     </g>
    </g>
    <g id="ytick_2">
     <g id="line2d_15">
      <path d="M 90 321.12 
L 648 321.12 
" clip-path="url(#pd88de61695)" style="fill: none; stroke-dasharray: 2.96,1.28; stroke-dashoffset: 0; stroke: #b0b0b0; stroke-opacity: 0.7; stroke-width: 0.8"/>
     </g>
     <g id="line2d_16">
      <g>
       <use xlink:href="#m8f4ed04e47" x="90" y="321.12" style="stroke: #000000; stroke-width: 0.8"/>
      </g>
     </g>
     <g id="text_9">
      <!-- 0.2 -->
      <g transform="translate(67.096875 324.918828) scale(0.1 -0.1)">
       <use xlink:href="#DejaVuSans-13"/>
       <use xlink:href="#DejaVuSans-11" transform="translate(63.625 0)"/>
       <use xlink:href="#DejaVuSans-15" transform="translate(95.40625 0)"/>
      </g>
     </g>
    </g>
    <g id="ytick_3">
     <g id="line2d_17">
      <path d="M 90 257.76 
L 648 257.76 
" clip-path="url(#pd88de61695)" style="fill: none; stroke-dasharray: 2.96,1.28; stroke-dashoffset: 0; stroke: #b0b0b0; stroke-opacity: 0.7; stroke-width: 0.8"/>
     </g>
     <g id="line2d_18">
      <g>
       <use xlink:href="#m8f4ed04e47" x="90" y="257.76" style="stroke: #000000; stroke-width: 0.8"/>
      </g>
     </g>
     <g id="text_10">
      <!-- 0.4 -->
      <g transform="translate(67.096875 261.558828) scale(0.1 -0.1)">
       <use xlink:href="#DejaVuSans-13"/>
       <use xlink:href="#DejaVuSans-11" transform="translate(63.625 0)"/>
       <use xlink:href="#DejaVuSans-17" transform="translate(95.40625 0)"/>
      </g>
     </g>
    </g>
    <g id="ytick_4">
     <g id="line2d_19">
      <path d="M 90 194.4 
L 648 194.4 
" clip-path="url(#pd88de61695)" style="fill: none; stroke-dasharray: 2.96,1.28; stroke-dashoffset: 0; stroke: #b0b0b0; stroke-opacity: 0.7; stroke-width: 0.8"/>
     </g>
     <g id="line2d_20">
      <g>
       <use xlink:href="#m8f4ed04e47" x="90" y="194.4" style="stroke: #000000; stroke-width: 0.8"/>
      </g>
     </g>
     <g id="text_11">
      <!-- 0.6 -->
      <g transform="translate(67.096875 198.198828) scale(0.1 -0.1)">
       <use xlink:href="#DejaVuSans-13"/>
       <use xlink:href="#DejaVuSans-11" transform="translate(63.625 0)"/>
       <use xlink:href="#DejaVuSans-19" transform="translate(95.40625 0)"/>
      </g>
     </g>
    </g>
    <g id="ytick_5">
     <g id="line2d_21">
      <path d="M 90 131.04 
L 648 131.04 
" clip-path="url(#pd88de61695)" style="fill: none; stroke-dasharray: 2.96,1.28; stroke-dashoffset: 0; stroke: #b0b0b0; stroke-opacity: 0.7; stroke-width: 0.8"/>
     </g>
     <g id="line2d_22">
      <g>
       <use xlink:href="#m8f4ed04e47" x="90" y="131.04" style="stroke: #000000; stroke-width: 0.8"/>
      </g>
     </g>
     <g id="text_12">
      <!-- 0.8 -->
      <g transform="translate(67.096875 134.838828) scale(0.1 -0.1)">
       <use xlink:href="#DejaVuSans-13"/>
       <use xlink:href="#DejaVuSans-11" transform="translate(63.625 0)"/>
       <use xlink:href="#DejaVuSans-1b" transform="translate(95.40625 0)"/>
      </g>
     </g>
    </g>
    <g id="ytick_6">
     <g id="line2d_23">
      <path d="M 90 67.68 
L 648 67.68 
" clip-path="url(#pd88de61695)" style="fill: none; stroke-dasharray: 2.96,1.28; stroke-dashoffset: 0; stroke: #b0b0b0; stroke-opacity: 0.7; stroke-width: 0.8"/>
     </g>
     <g id="line2d_24">
      <g>
       <use xlink:href="#m8f4ed04e47" x="90" y="67.68" style="stroke: #000000; stroke-width: 0.8"/>
      </g>
     </g>
     <g id="text_13">
      <!-- 1.0 -->
      <g transform="translate(67.096875 71.478828) scale(0.1 -0.1)">
       <use xlink:href="#DejaVuSans-14"/>
       <use xlink:href="#DejaVuSans-11" transform="translate(63.625 0)"/>
       <use xlink:href="#DejaVuSans-13" transform="translate(95.40625 0)"/>
      </g>
     </g>
    </g>
    <g id="text_14">
     <!-- Cumulative Distribution Function (CDF) -->
     <g transform="translate(60.694531 316.018594) rotate(-90) scale(0.1 -0.1)">
      <defs>
       <path id="DejaVuSans-26" d="M 4122 4306 
L 4122 3641 
Q 3803 3938 3442 4084 
Q 3081 4231 2675 4231 
Q 1875 4231 1450 3742 
Q 1025 3253 1025 2328 
Q 1025 1406 1450 917 
Q 1875 428 2675 428 
Q 3081 428 3442 575 
Q 3803 722 4122 1019 
L 4122 359 
Q 3791 134 3420 21 
Q 3050 -91 2638 -91 
Q 1578 -91 968 557 
Q 359 1206 359 2328 
Q 359 3453 968 4101 
Q 1578 4750 2638 4750 
Q 3056 4750 3426 4639 
Q 3797 4528 4122 4306 
z
" transform="scale(0.015625)"/>
       <path id="DejaVuSans-58" d="M 544 1381 
L 544 3500 
L 1119 3500 
L 1119 1403 
Q 1119 906 1312 657 
Q 1506 409 1894 409 
Q 2359 409 2629 706 
Q 2900 1003 2900 1516 
L 2900 3500 
L 3475 3500 
L 3475 0 
L 2900 0 
L 2900 538 
Q 2691 219 2414 64 
Q 2138 -91 1772 -91 
Q 1169 -91 856 284 
Q 544 659 544 1381 
z
M 1991 3584 
L 1991 3584 
z
" transform="scale(0.015625)"/>
       <path id="DejaVuSans-50" d="M 3328 2828 
Q 3544 3216 3844 3400 
Q 4144 3584 4550 3584 
Q 5097 3584 5394 3201 
Q 5691 2819 5691 2113 
L 5691 0 
L 5113 0 
L 5113 2094 
Q 5113 2597 4934 2840 
Q 4756 3084 4391 3084 
Q 3944 3084 3684 2787 
Q 3425 2491 3425 1978 
L 3425 0 
L 2847 0 
L 2847 2094 
Q 2847 2600 2669 2842 
Q 2491 3084 2119 3084 
Q 1678 3084 1418 2786 
Q 1159 2488 1159 1978 
L 1159 0 
L 581 0 
L 581 3500 
L 1159 3500 
L 1159 2956 
Q 1356 3278 1631 3431 
Q 1906 3584 2284 3584 
Q 2666 3584 2933 3390 
Q 3200 3197 3328 2828 
z
" transform="scale(0.015625)"/>
       <path id="DejaVuSans-4f" d="M 603 4863 
L 1178 4863 
L 1178 0 
L 603 0 
L 603 4863 
z
" transform="scale(0.015625)"/>
       <path id="DejaVuSans-4c" d="M 603 3500 
L 1178 3500 
L 1178 0 
L 603 0 
L 603 3500 
z
M 603 4863 
L 1178 4863 
L 1178 4134 
L 603 4134 
L 603 4863 
z
" transform="scale(0.015625)"/>
       <path id="DejaVuSans-59" d="M 191 3500 
L 800 3500 
L 1894 563 
L 2988 3500 
L 3597 3500 
L 2284 0 
L 1503 0 
L 191 3500 
z
" transform="scale(0.015625)"/>
       <path id="DejaVuSans-27" d="M 1259 4147 
L 1259 519 
L 2022 519 
Q 2988 519 3436 956 
Q 3884 1394 3884 2338 
Q 3884 3275 3436 3711 
Q 2988 4147 2022 4147 
L 1259 4147 
z
M 628 4666 
L 1925 4666 
Q 3281 4666 3915 4102 
Q 4550 3538 4550 2338 
Q 4550 1131 3912 565 
Q 3275 0 1925 0 
L 628 0 
L 628 4666 
z
" transform="scale(0.015625)"/>
       <path id="DejaVuSans-56" d="M 2834 3397 
L 2834 2853 
Q 2591 2978 2328 3040 
Q 2066 3103 1784 3103 
Q 1356 3103 1142 2972 
Q 928 2841 928 2578 
Q 928 2378 1081 2264 
Q 1234 2150 1697 2047 
L 1894 2003 
Q 2506 1872 2764 1633 
Q 3022 1394 3022 966 
Q 3022 478 2636 193 
Q 2250 -91 1575 -91 
Q 1294 -91 989 -36 
Q 684 19 347 128 
L 347 722 
Q 666 556 975 473 
Q 1284 391 1588 391 
Q 1994 391 2212 530 
Q 2431 669 2431 922 
Q 2431 1156 2273 1281 
Q 2116 1406 1581 1522 
L 1381 1569 
Q 847 1681 609 1914 
Q 372 2147 372 2553 
Q 372 3047 722 3315 
Q 1072 3584 1716 3584 
Q 2034 3584 2315 3537 
Q 2597 3491 2834 3397 
z
" transform="scale(0.015625)"/>
       <path id="DejaVuSans-55" d="M 2631 2963 
Q 2534 3019 2420 3045 
Q 2306 3072 2169 3072 
Q 1681 3072 1420 2755 
Q 1159 2438 1159 1844 
L 1159 0 
L 581 0 
L 581 3500 
L 1159 3500 
L 1159 2956 
Q 1341 3275 1631 3429 
Q 1922 3584 2338 3584 
Q 2397 3584 2469 3576 
Q 2541 3569 2628 3553 
L 2631 2963 
z
" transform="scale(0.015625)"/>
       <path id="DejaVuSans-45" d="M 3116 1747 
Q 3116 2381 2855 2742 
Q 2594 3103 2138 3103 
Q 1681 3103 1420 2742 
Q 1159 2381 1159 1747 
Q 1159 1113 1420 752 
Q 1681 391 2138 391 
Q 2594 391 2855 752 
Q 3116 1113 3116 1747 
z
M 1159 2969 
Q 1341 3281 1617 3432 
Q 1894 3584 2278 3584 
Q 2916 3584 3314 3078 
Q 3713 2572 3713 1747 
Q 3713 922 3314 415 
Q 2916 -91 2278 -91 
Q 1894 -91 1617 61 
Q 1341 213 1159 525 
L 1159 0 
L 581 0 
L 581 4863 
L 1159 4863 
L 1159 2969 
z
" transform="scale(0.015625)"/>
       <path id="DejaVuSans-52" d="M 1959 3097 
Q 1497 3097 1228 2736 
Q 959 2375 959 1747 
Q 959 1119 1226 758 
Q 1494 397 1959 397 
Q 2419 397 2687 759 
Q 2956 1122 2956 1747 
Q 2956 2369 2687 2733 
Q 2419 3097 1959 3097 
z
M 1959 3584 
Q 2709 3584 3137 3096 
Q 3566 2609 3566 1747 
Q 3566 888 3137 398 
Q 2709 -91 1959 -91 
Q 1206 -91 779 398 
Q 353 888 353 1747 
Q 353 2609 779 3096 
Q 1206 3584 1959 3584 
z
" transform="scale(0.015625)"/>
       <path id="DejaVuSans-29" d="M 628 4666 
L 3309 4666 
L 3309 4134 
L 1259 4134 
L 1259 2759 
L 3109 2759 
L 3109 2228 
L 1259 2228 
L 1259 0 
L 628 0 
L 628 4666 
z
" transform="scale(0.015625)"/>
      </defs>
      <use xlink:href="#DejaVuSans-26"/>
      <use xlink:href="#DejaVuSans-58" transform="translate(69.828125 0)"/>
      <use xlink:href="#DejaVuSans-50" transform="translate(133.203125 0)"/>
      <use xlink:href="#DejaVuSans-58" transform="translate(230.609375 0)"/>
      <use xlink:href="#DejaVuSans-4f" transform="translate(293.984375 0)"/>
      <use xlink:href="#DejaVuSans-44" transform="translate(321.765625 0)"/>
      <use xlink:href="#DejaVuSans-57" transform="translate(383.046875 0)"/>
      <use xlink:href="#DejaVuSans-4c" transform="translate(422.25 0)"/>
      <use xlink:href="#DejaVuSans-59" transform="translate(450.03125 0)"/>
      <use xlink:href="#DejaVuSans-48" transform="translate(509.21875 0)"/>
      <use xlink:href="#DejaVuSans-3" transform="translate(570.75 0)"/>
      <use xlink:href="#DejaVuSans-27" transform="translate(602.53125 0)"/>
      <use xlink:href="#DejaVuSans-4c" transform="translate(679.53125 0)"/>
      <use xlink:href="#DejaVuSans-56" transform="translate(707.3125 0)"/>
      <use xlink:href="#DejaVuSans-57" transform="translate(759.40625 0)"/>
      <use xlink:href="#DejaVuSans-55" transform="translate(798.609375 0)"/>
      <use xlink:href="#DejaVuSans-4c" transform="translate(839.71875 0)"/>
      <use xlink:href="#DejaVuSans-45" transform="translate(867.5 0)"/>
      <use xlink:href="#DejaVuSans-58" transform="translate(930.984375 0)"/>
      <use xlink:href="#DejaVuSans-57" transform="translate(994.359375 0)"/>
      <use xlink:href="#DejaVuSans-4c" transform="translate(1033.5625 0)"/>
      <use xlink:href="#DejaVuSans-52" transform="translate(1061.34375 0)"/>
      <use xlink:href="#DejaVuSans-51" transform="translate(1122.53125 0)"/>
      <use xlink:href="#DejaVuSans-3" transform="translate(1185.90625 0)"/>
      <use xlink:href="#DejaVuSans-29" transform="translate(1217.6875 0)"/>
      <use xlink:href="#DejaVuSans-58" transform="translate(1269.734375 0)"/>
      <use xlink:href="#DejaVuSans-51" transform="translate(1333.109375 0)"/>
      <use xlink:href="#DejaVuSans-46" transform="translate(1396.484375 0)"/>
      <use xlink:href="#DejaVuSans-57" transform="translate(1451.46875 0)"/>
      <use xlink:href="#DejaVuSans-4c" transform="translate(1490.671875 0)"/>
      <use xlink:href="#DejaVuSans-52" transform="translate(1518.453125 0)"/>
      <use xlink:href="#DejaVuSans-51" transform="translate(1579.640625 0)"/>
      <use xlink:href="#DejaVuSans-3" transform="translate(1643.015625 0)"/>
      <use xlink:href="#DejaVuSans-b" transform="translate(1674.796875 0)"/>
      <use xlink:href="#DejaVuSans-26" transform="translate(1713.8125 0)"/>
      <use xlink:href="#DejaVuSans-27" transform="translate(1783.640625 0)"/>
      <use xlink:href="#DejaVuSans-29" transform="translate(1860.640625 0)"/>
      <use xlink:href="#DejaVuSans-c" transform="translate(1918.15625 0)"/>
     </g>
    </g>
   </g>
   <g id="line2d_25">
    <path d="M 90 384.48 
L 123.48 384.473416 
L 129.06 341.146381 
L 134.64 308.955091 
L 140.22 304.443339 
L 145.8 300.402077 
L 151.38 288.475705 
L 156.96 276.019371 
L 162.54 209.182018 
L 168.12 129.504188 
L 173.7 113.145882 
L 179.28 107.270367 
L 184.86 100.724033 
L 190.44 95.576704 
L 196.02 92.201673 
L 201.6 89.873507 
L 212.76 86.491245 
L 218.34 84.876316 
L 223.92 83.401325 
L 229.5 82.336165 
L 240.66 80.828308 
L 251.82 79.60335 
L 268.56 78.044115 
L 285.3 76.771611 
L 307.62 75.324954 
L 329.94 74.123903 
L 357.84 72.896408 
L 385.74 71.936917 
L 413.64 71.20695 
L 452.7 70.434834 
L 491.76 69.866986 
L 541.98 69.346792 
L 614.52 68.832966 
L 721 68.375658 
L 721 68.375658 
" clip-path="url(#pd88de61695)" style="fill: none; stroke: #1f77b4; stroke-width: 1.5; stroke-linecap: square"/>
   </g>
   <g id="line2d_26">
    <path d="M 90 384.48 
L 129.06 384.473119 
L 134.64 339.284068 
L 140.22 259.72439 
L 145.8 253.527851 
L 151.38 250.096846 
L 156.96 243.392345 
L 162.54 237.329149 
L 168.12 209.969046 
L 173.7 133.42333 
L 179.28 109.066136 
L 184.86 103.343478 
L 190.44 99.730744 
L 196.02 96.924573 
L 207.18 89.544794 
L 212.76 86.989272 
L 218.34 85.171174 
L 223.92 83.700929 
L 229.5 82.588885 
L 235.08 81.707226 
L 240.66 80.958585 
L 251.82 79.739802 
L 268.56 78.261917 
L 290.88 76.686612 
L 313.2 75.382924 
L 335.52 74.311626 
L 363.42 73.209822 
L 391.32 72.328109 
L 424.8 71.516291 
L 458.28 70.885443 
L 508.5 70.140974 
L 564.3 69.519987 
L 625.68 69.013109 
L 721 68.50419 
L 721 68.50419 
" clip-path="url(#pd88de61695)" style="fill: none; stroke: #ff7f0e; stroke-width: 1.5; stroke-linecap: square"/>
   </g>
   <g id="line2d_27">
    <path d="M 90 384.48 
L 123.48 384.478822 
L 129.06 378.818657 
L 134.64 204.338194 
L 140.22 177.665301 
L 145.8 159.988024 
L 151.38 115.032601 
L 156.96 101.196785 
L 162.54 95.142598 
L 168.12 91.891125 
L 173.7 88.14987 
L 179.28 85.250109 
L 184.86 83.490961 
L 190.44 82.282812 
L 196.02 81.260026 
L 201.6 80.416978 
L 212.76 79.070544 
L 223.92 77.980329 
L 240.66 76.633359 
L 257.4 75.541269 
L 279.72 74.354971 
L 307.62 73.118437 
L 335.52 72.088688 
L 363.42 71.256459 
L 402.48 70.359158 
L 447.12 69.647701 
L 491.76 69.147099 
L 553.14 68.702305 
L 636.84 68.340042 
L 721 68.118236 
L 721 68.118236 
" clip-path="url(#pd88de61695)" style="fill: none; stroke: #2ca02c; stroke-width: 1.5; stroke-linecap: square"/>
   </g>
   <g id="line2d_28">
    <path d="M 90 384.48 
L 129.06 384.47834 
L 134.64 383.402055 
L 140.22 227.288552 
L 145.8 182.603965 
L 151.38 169.475249 
L 156.96 118.497317 
L 162.54 104.69166 
L 168.12 100.54976 
L 173.7 93.145543 
L 179.28 86.984223 
L 184.86 84.258417 
L 190.44 82.489504 
L 196.02 81.307641 
L 201.6 80.349516 
L 207.18 79.544296 
L 218.34 78.325171 
L 229.5 77.351198 
L 246.24 76.139836 
L 268.56 74.824822 
L 290.88 73.684452 
L 318.78 72.497396 
L 346.68 71.544785 
L 380.16 70.68849 
L 413.64 70.064284 
L 463.86 69.423428 
L 519.66 68.964496 
L 603.36 68.506956 
L 709.38 68.154405 
L 721 68.127361 
L 721 68.127361 
" clip-path="url(#pd88de61695)" style="fill: none; stroke: #d62728; stroke-width: 1.5; stroke-linecap: square"/>
   </g>
   <g id="patch_3">
    <path d="M 90 384.48 
L 90 51.84 
" style="fill: none; stroke: #000000; stroke-width: 0.8; stroke-linejoin: miter; stroke-linecap: square"/>
   </g>
   <g id="patch_4">
    <path d="M 648 384.48 
L 648 51.84 
" style="fill: none; stroke: #000000; stroke-width: 0.8; stroke-linejoin: miter; stroke-linecap: square"/>
   </g>
   <g id="patch_5">
    <path d="M 90 384.48 
L 648 384.48 
" style="fill: none; stroke: #000000; stroke-width: 0.8; stroke-linejoin: miter; stroke-linecap: square"/>
   </g>
   <g id="patch_6">
    <path d="M 90 51.84 
L 648 51.84 
" style="fill: none; stroke: #000000; stroke-width: 0.8; stroke-linejoin: miter; stroke-linecap: square"/>
   </g>
   <g id="text_15">
    <!-- Cyclictest latencies on KVM (background noise) -->
    <g transform="translate(226.479375 45.84) scale(0.12 -0.12)">
     <defs>
      <path id="DejaVuSans-2e" d="M 628 4666 
L 1259 4666 
L 1259 2694 
L 3353 4666 
L 4166 4666 
L 1850 2491 
L 4331 0 
L 3500 0 
L 1259 2247 
L 1259 0 
L 628 0 
L 628 4666 
z
" transform="scale(0.015625)"/>
      <path id="DejaVuSans-39" d="M 1831 0 
L 50 4666 
L 709 4666 
L 2188 738 
L 3669 4666 
L 4325 4666 
L 2547 0 
L 1831 0 
z
" transform="scale(0.015625)"/>
      <path id="DejaVuSans-30" d="M 628 4666 
L 1569 4666 
L 2759 1491 
L 3956 4666 
L 4897 4666 
L 4897 0 
L 4281 0 
L 4281 4097 
L 3078 897 
L 2444 897 
L 1241 4097 
L 1241 0 
L 628 0 
L 628 4666 
z
" transform="scale(0.015625)"/>
      <path id="DejaVuSans-4e" d="M 581 4863 
L 1159 4863 
L 1159 1991 
L 2875 3500 
L 3609 3500 
L 1753 1863 
L 3688 0 
L 2938 0 
L 1159 1709 
L 1159 0 
L 581 0 
L 581 4863 
z
" transform="scale(0.015625)"/>
      <path id="DejaVuSans-4a" d="M 2906 1791 
Q 2906 2416 2648 2759 
Q 2391 3103 1925 3103 
Q 1463 3103 1205 2759 
Q 947 2416 947 1791 
Q 947 1169 1205 825 
Q 1463 481 1925 481 
Q 2391 481 2648 825 
Q 2906 1169 2906 1791 
z
M 3481 434 
Q 3481 -459 3084 -895 
Q 2688 -1331 1869 -1331 
Q 1566 -1331 1297 -1286 
Q 1028 -1241 775 -1147 
L 775 -588 
Q 1028 -725 1275 -790 
Q 1522 -856 1778 -856 
Q 2344 -856 2625 -561 
Q 2906 -266 2906 331 
L 2906 616 
Q 2728 306 2450 153 
Q 2172 0 1784 0 
Q 1141 0 747 490 
Q 353 981 353 1791 
Q 353 2603 747 3093 
Q 1141 3584 1784 3584 
Q 2172 3584 2450 3431 
Q 2728 3278 2906 2969 
L 2906 3500 
L 3481 3500 
L 3481 434 
z
" transform="scale(0.015625)"/>
      <path id="DejaVuSans-47" d="M 2906 2969 
L 2906 4863 
L 3481 4863 
L 3481 0 
L 2906 0 
L 2906 525 
Q 2725 213 2448 61 
Q 2172 -91 1784 -91 
Q 1150 -91 751 415 
Q 353 922 353 1747 
Q 353 2572 751 3078 
Q 1150 3584 1784 3584 
Q 2172 3584 2448 3432 
Q 2725 3281 2906 2969 
z
M 947 1747 
Q 947 1113 1208 752 
Q 1469 391 1925 391 
Q 2381 391 2643 752 
Q 2906 1113 2906 1747 
Q 2906 2381 2643 2742 
Q 2381 3103 1925 3103 
Q 1469 3103 1208 2742 
Q 947 2381 947 1747 
z
" transform="scale(0.015625)"/>
     </defs>
     <use xlink:href="#DejaVuSans-26"/>
     <use xlink:href="#DejaVuSans-5c" transform="translate(69.828125 0)"/>
     <use xlink:href="#DejaVuSans-46" transform="translate(129.015625 0)"/>
     <use xlink:href="#DejaVuSans-4f" transform="translate(184 0)"/>
     <use xlink:href="#DejaVuSans-4c" transform="translate(211.78125 0)"/>
     <use xlink:href="#DejaVuSans-46" transform="translate(239.5625 0)"/>
     <use xlink:href="#DejaVuSans-57" transform="translate(294.546875 0)"/>
     <use xlink:href="#DejaVuSans-48" transform="translate(333.75 0)"/>
     <use xlink:href="#DejaVuSans-56" transform="translate(395.28125 0)"/>
     <use xlink:href="#DejaVuSans-57" transform="translate(447.375 0)"/>
     <use xlink:href="#DejaVuSans-3" transform="translate(486.578125 0)"/>
     <use xlink:href="#DejaVuSans-4f" transform="translate(518.359375 0)"/>
     <use xlink:href="#DejaVuSans-44" transform="translate(546.140625 0)"/>
     <use xlink:href="#DejaVuSans-57" transform="translate(607.421875 0)"/>
     <use xlink:href="#DejaVuSans-48" transform="translate(646.625 0)"/>
     <use xlink:href="#DejaVuSans-51" transform="translate(708.15625 0)"/>
     <use xlink:href="#DejaVuSans-46" transform="translate(771.53125 0)"/>
     <use xlink:href="#DejaVuSans-4c" transform="translate(826.515625 0)"/>
     <use xlink:href="#DejaVuSans-48" transform="translate(854.296875 0)"/>
     <use xlink:href="#DejaVuSans-56" transform="translate(915.828125 0)"/>
     <use xlink:href="#DejaVuSans-3" transform="translate(967.921875 0)"/>
     <use xlink:href="#DejaVuSans-52" transform="translate(999.703125 0)"/>
     <use xlink:href="#DejaVuSans-51" transform="translate(1060.890625 0)"/>
     <use xlink:href="#DejaVuSans-3" transform="translate(1124.265625 0)"/>
     <use xlink:href="#DejaVuSans-2e" transform="translate(1156.046875 0)"/>
     <use xlink:href="#DejaVuSans-39" transform="translate(1221.625 0)"/>
     <use xlink:href="#DejaVuSans-30" transform="translate(1290.03125 0)"/>
     <use xlink:href="#DejaVuSans-3" transform="translate(1376.3125 0)"/>
     <use xlink:href="#DejaVuSans-b" transform="translate(1408.09375 0)"/>
     <use xlink:href="#DejaVuSans-45" transform="translate(1447.109375 0)"/>
     <use xlink:href="#DejaVuSans-44" transform="translate(1510.59375 0)"/>
     <use xlink:href="#DejaVuSans-46" transform="translate(1571.875 0)"/>
     <use xlink:href="#DejaVuSans-4e" transform="translate(1626.859375 0)"/>
     <use xlink:href="#DejaVuSans-4a" transform="translate(1684.765625 0)"/>
     <use xlink:href="#DejaVuSans-55" transform="translate(1748.25 0)"/>
     <use xlink:href="#DejaVuSans-52" transform="translate(1787.15625 0)"/>
     <use xlink:href="#DejaVuSans-58" transform="translate(1848.34375 0)"/>
     <use xlink:href="#DejaVuSans-51" transform="translate(1911.71875 0)"/>
     <use xlink:href="#DejaVuSans-47" transform="translate(1975.09375 0)"/>
     <use xlink:href="#DejaVuSans-3" transform="translate(2038.578125 0)"/>
     <use xlink:href="#DejaVuSans-51" transform="translate(2070.359375 0)"/>
     <use xlink:href="#DejaVuSans-52" transform="translate(2133.734375 0)"/>
     <use xlink:href="#DejaVuSans-4c" transform="translate(2194.921875 0)"/>
     <use xlink:href="#DejaVuSans-56" transform="translate(2222.703125 0)"/>
     <use xlink:href="#DejaVuSans-48" transform="translate(2274.796875 0)"/>
     <use xlink:href="#DejaVuSans-c" transform="translate(2336.328125 0)"/>
    </g>
   </g>
   <g id="legend_1">
    <g id="patch_7">
     <path d="M 507.114062 379.48 
L 641 379.48 
Q 643 379.48 643 377.48 
L 643 318.476875 
Q 643 316.476875 641 316.476875 
L 507.114062 316.476875 
Q 505.114062 316.476875 505.114062 318.476875 
L 505.114062 377.48 
Q 505.114062 379.48 507.114062 379.48 
z
" style="fill: #ffffff; opacity: 0.8; stroke: #cccccc; stroke-linejoin: miter"/>
    </g>
    <g id="line2d_29">
     <path d="M 509.114062 324.575312 
L 519.114063 324.575312 
L 529.114063 324.575312 
" style="fill: none; stroke: #1f77b4; stroke-width: 1.5; stroke-linecap: square"/>
    </g>
    <g id="text_16">
     <!-- NRT host, NRT guest -->
     <g transform="translate(537.114063 328.075312) scale(0.1 -0.1)">
      <defs>
       <path id="DejaVuSans-31" d="M 628 4666 
L 1478 4666 
L 3547 763 
L 3547 4666 
L 4159 4666 
L 4159 0 
L 3309 0 
L 1241 3903 
L 1241 0 
L 628 0 
L 628 4666 
z
" transform="scale(0.015625)"/>
       <path id="DejaVuSans-35" d="M 2841 2188 
Q 3044 2119 3236 1894 
Q 3428 1669 3622 1275 
L 4263 0 
L 3584 0 
L 2988 1197 
Q 2756 1666 2539 1819 
Q 2322 1972 1947 1972 
L 1259 1972 
L 1259 0 
L 628 0 
L 628 4666 
L 2053 4666 
Q 2853 4666 3247 4331 
Q 3641 3997 3641 3322 
Q 3641 2881 3436 2590 
Q 3231 2300 2841 2188 
z
M 1259 4147 
L 1259 2491 
L 2053 2491 
Q 2509 2491 2742 2702 
Q 2975 2913 2975 3322 
Q 2975 3731 2742 3939 
Q 2509 4147 2053 4147 
L 1259 4147 
z
" transform="scale(0.015625)"/>
       <path id="DejaVuSans-37" d="M -19 4666 
L 3928 4666 
L 3928 4134 
L 2272 4134 
L 2272 0 
L 1638 0 
L 1638 4134 
L -19 4134 
L -19 4666 
z
" transform="scale(0.015625)"/>
       <path id="DejaVuSans-4b" d="M 3513 2113 
L 3513 0 
L 2938 0 
L 2938 2094 
Q 2938 2591 2744 2837 
Q 2550 3084 2163 3084 
Q 1697 3084 1428 2787 
Q 1159 2491 1159 1978 
L 1159 0 
L 581 0 
L 581 4863 
L 1159 4863 
L 1159 2956 
Q 1366 3272 1645 3428 
Q 1925 3584 2291 3584 
Q 2894 3584 3203 3211 
Q 3513 2838 3513 2113 
z
" transform="scale(0.015625)"/>
       <path id="DejaVuSans-f" d="M 750 794 
L 1409 794 
L 1409 256 
L 897 -744 
L 494 -744 
L 750 256 
L 750 794 
z
" transform="scale(0.015625)"/>
      </defs>
      <use xlink:href="#DejaVuSans-31"/>
      <use xlink:href="#DejaVuSans-35" transform="translate(74.8125 0)"/>
      <use xlink:href="#DejaVuSans-37" transform="translate(137.015625 0)"/>
      <use xlink:href="#DejaVuSans-3" transform="translate(198.09375 0)"/>
      <use xlink:href="#DejaVuSans-4b" transform="translate(229.875 0)"/>
      <use xlink:href="#DejaVuSans-52" transform="translate(293.25 0)"/>
      <use xlink:href="#DejaVuSans-56" transform="translate(354.4375 0)"/>
      <use xlink:href="#DejaVuSans-57" transform="translate(406.53125 0)"/>
      <use xlink:href="#DejaVuSans-f" transform="translate(445.734375 0)"/>
      <use xlink:href="#DejaVuSans-3" transform="translate(477.515625 0)"/>
      <use xlink:href="#DejaVuSans-31" transform="translate(509.296875 0)"/>
      <use xlink:href="#DejaVuSans-35" transform="translate(584.109375 0)"/>
      <use xlink:href="#DejaVuSans-37" transform="translate(646.3125 0)"/>
      <use xlink:href="#DejaVuSans-3" transform="translate(707.390625 0)"/>
      <use xlink:href="#DejaVuSans-4a" transform="translate(739.171875 0)"/>
      <use xlink:href="#DejaVuSans-58" transform="translate(802.65625 0)"/>
      <use xlink:href="#DejaVuSans-48" transform="translate(866.03125 0)"/>
      <use xlink:href="#DejaVuSans-56" transform="translate(927.5625 0)"/>
      <use xlink:href="#DejaVuSans-57" transform="translate(979.65625 0)"/>
     </g>
    </g>
    <g id="line2d_30">
     <path d="M 509.114062 339.576094 
L 519.114063 339.576094 
L 529.114063 339.576094 
" style="fill: none; stroke: #ff7f0e; stroke-width: 1.5; stroke-linecap: square"/>
    </g>
    <g id="text_17">
     <!-- NRT host, RT guest -->
     <g transform="translate(537.114063 343.076094) scale(0.1 -0.1)">
      <use xlink:href="#DejaVuSans-31"/>
      <use xlink:href="#DejaVuSans-35" transform="translate(74.8125 0)"/>
      <use xlink:href="#DejaVuSans-37" transform="translate(137.015625 0)"/>
      <use xlink:href="#DejaVuSans-3" transform="translate(198.09375 0)"/>
      <use xlink:href="#DejaVuSans-4b" transform="translate(229.875 0)"/>
      <use xlink:href="#DejaVuSans-52" transform="translate(293.25 0)"/>
      <use xlink:href="#DejaVuSans-56" transform="translate(354.4375 0)"/>
      <use xlink:href="#DejaVuSans-57" transform="translate(406.53125 0)"/>
      <use xlink:href="#DejaVuSans-f" transform="translate(445.734375 0)"/>
      <use xlink:href="#DejaVuSans-3" transform="translate(477.515625 0)"/>
      <use xlink:href="#DejaVuSans-35" transform="translate(509.296875 0)"/>
      <use xlink:href="#DejaVuSans-37" transform="translate(571.5 0)"/>
      <use xlink:href="#DejaVuSans-3" transform="translate(632.578125 0)"/>
      <use xlink:href="#DejaVuSans-4a" transform="translate(664.359375 0)"/>
      <use xlink:href="#DejaVuSans-58" transform="translate(727.84375 0)"/>
      <use xlink:href="#DejaVuSans-48" transform="translate(791.21875 0)"/>
      <use xlink:href="#DejaVuSans-56" transform="translate(852.75 0)"/>
      <use xlink:href="#DejaVuSans-57" transform="translate(904.84375 0)"/>
     </g>
    </g>
    <g id="line2d_31">
     <path d="M 509.114062 354.576875 
L 519.114063 354.576875 
L 529.114063 354.576875 
" style="fill: none; stroke: #2ca02c; stroke-width: 1.5; stroke-linecap: square"/>
    </g>
    <g id="text_18">
     <!-- RT host, NRT guest -->
     <g transform="translate(537.114063 358.076875) scale(0.1 -0.1)">
      <use xlink:href="#DejaVuSans-35"/>
      <use xlink:href="#DejaVuSans-37" transform="translate(62.203125 0)"/>
      <use xlink:href="#DejaVuSans-3" transform="translate(123.28125 0)"/>
      <use xlink:href="#DejaVuSans-4b" transform="translate(155.0625 0)"/>
      <use xlink:href="#DejaVuSans-52" transform="translate(218.4375 0)"/>
      <use xlink:href="#DejaVuSans-56" transform="translate(279.625 0)"/>
      <use xlink:href="#DejaVuSans-57" transform="translate(331.71875 0)"/>
      <use xlink:href="#DejaVuSans-f" transform="translate(370.921875 0)"/>
      <use xlink:href="#DejaVuSans-3" transform="translate(402.703125 0)"/>
      <use xlink:href="#DejaVuSans-31" transform="translate(434.484375 0)"/>
      <use xlink:href="#DejaVuSans-35" transform="translate(509.296875 0)"/>
      <use xlink:href="#DejaVuSans-37" transform="translate(571.5 0)"/>
      <use xlink:href="#DejaVuSans-3" transform="translate(632.578125 0)"/>
      <use xlink:href="#DejaVuSans-4a" transform="translate(664.359375 0)"/>
      <use xlink:href="#DejaVuSans-58" transform="translate(727.84375 0)"/>
      <use xlink:href="#DejaVuSans-48" transform="translate(791.21875 0)"/>
      <use xlink:href="#DejaVuSans-56" transform="translate(852.75 0)"/>
      <use xlink:href="#DejaVuSans-57" transform="translate(904.84375 0)"/>
     </g>
    </g>
    <g id="line2d_32">
     <path d="M 509.114062 369.577656 
L 519.114063 369.577656 
L 529.114063 369.577656 
" style="fill: none; stroke: #d62728; stroke-width: 1.5; stroke-linecap: square"/>
    </g>
    <g id="text_19">
     <!-- RT host, RT guest -->
     <g transform="translate(537.114063 373.077656) scale(0.1 -0.1)">
      <use xlink:href="#DejaVuSans-35"/>
      <use xlink:href="#DejaVuSans-37" transform="translate(62.203125 0)"/>
      <use xlink:href="#DejaVuSans-3" transform="translate(123.28125 0)"/>
      <use xlink:href="#DejaVuSans-4b" transform="translate(155.0625 0)"/>
      <use xlink:href="#DejaVuSans-52" transform="translate(218.4375 0)"/>
      <use xlink:href="#DejaVuSans-56" transform="translate(279.625 0)"/>
      <use xlink:href="#DejaVuSans-57" transform="translate(331.71875 0)"/>
      <use xlink:href="#DejaVuSans-f" transform="translate(370.921875 0)"/>
      <use xlink:href="#DejaVuSans-3" transform="translate(402.703125 0)"/>
      <use xlink:href="#DejaVuSans-35" transform="translate(434.484375 0)"/>
      <use xlink:href="#DejaVuSans-37" transform="translate(496.6875 0)"/>
      <use xlink:href="#DejaVuSans-3" transform="translate(557.765625 0)"/>
      <use xlink:href="#DejaVuSans-4a" transform="translate(589.546875 0)"/>
      <use xlink:href="#DejaVuSans-58" transform="translate(653.03125 0)"/>
      <use xlink:href="#DejaVuSans-48" transform="translate(716.40625 0)"/>
      <use xlink:href="#DejaVuSans-56" transform="translate(777.9375 0)"/>
      <use xlink:href="#DejaVuSans-57" transform="translate(830.03125 0)"/>
     </g>
    </g>
   </g>
  </g>
 </g>
 <defs>
  <clipPath id="pd88de61695">
   <rect x="90" y="51.84" width="558" height="332.64"/>
  </clipPath>
 </defs>
</svg>
